<?xml version="1.0" encoding="UTF-8" standalone="no" ?>
<!DOCTYPE svg PUBLIC "-//W3C//DTD SVG 1.1//EN" "http://www.w3.org/Graphics/SVG/1.1/DTD/svg11.dtd">
<svg xmlns="http://www.w3.org/2000/svg" xmlns:xlink="http://www.w3.org/1999/xlink" version="1.1" width="40" height="40" viewBox="0 0 1080 1080" xml:space="preserve">
<desc>Created with Fabric.js 5.2.4</desc>
<defs>
</defs>
<g transform="matrix(1 0 0 1 540 540)" id="50020902-48b3-4657-9413-c1d75857b8bf"  >
</g>
<g transform="matrix(1 0 0 1 540 540)" id="9e2d7701-428c-4b3e-90cb-c391af385eed"  >
<rect style="stroke: none; stroke-width: 1; stroke-dasharray: none; stroke-linecap: butt; stroke-dashoffset: 0; stroke-linejoin: miter; stroke-miterlimit: 4; fill: rgb(255,255,255); fill-rule: nonzero; opacity: 1; visibility: hidden;" vector-effect="non-scaling-stroke"  x="-540" y="-540" rx="0" ry="0" width="1080" height="1080" />
</g>
<g transform="matrix(1 0 0 1 540 540)"  >
<rect style="stroke: none; stroke-width: 1; stroke-dasharray: none; stroke-linecap: butt; stroke-dashoffset: 0; stroke-linejoin: miter; stroke-miterlimit: 4; fill: rgb(255,255,255); fill-rule: nonzero; opacity: 1; visibility: hidden;" vector-effect="non-scaling-stroke"  x="-540" y="-540" rx="0" ry="0" width="1080" height="1080" />
</g>
<g transform="matrix(6.4 0 0 6.4 540 540)"  >
<polygon style="stroke: rgb(41,243,195); stroke-width: 3; stroke-dasharray: none; stroke-linecap: butt; stroke-dashoffset: 0; stroke-linejoin: miter; stroke-miterlimit: 10; fill: rgb(191,192,192); fill-opacity: 0; fill-rule: nonzero; opacity: 1;" vector-effect="non-scaling-stroke"  points="70.46,-40.68 0,-81.36 -70.46,-40.68 -59.59,53.76 0,81.36 59.74,54.1 70.46,-40.68 " />
</g>
<g transform="matrix(6.4 0 0 6.4 758.87 536.99)"  >
<polygon style="stroke: none; stroke-width: 1; stroke-dasharray: none; stroke-linecap: butt; stroke-dashoffset: 0; stroke-linejoin: miter; stroke-miterlimit: 4; fill: rgb(181,188,188); fill-opacity: 0.33; fill-rule: nonzero; opacity: 1;" vector-effect="non-scaling-stroke"  points="-34.66,80.23 24.15,53.38 34.7,-40.16 -34.7,-80.23 -34.66,80.23 " />
</g>
<g transform="matrix(6.4 0 0 6.4 403.45 517.79)"  >
<polygon style="stroke: rgb(41,243,195); stroke-width: 3; stroke-dasharray: none; stroke-linecap: butt; stroke-dashoffset: 0; stroke-linejoin: miter; stroke-miterlimit: 10; fill: rgb(41,243,195); fill-rule: nonzero; opacity: 1;" vector-effect="non-scaling-stroke"  points="-30.01,46.14 -31.64,46.13 -11.7,-46.14 20.81,1.05 30.47,-13.27 31.64,-11.4 20.86,5.89 -10.75,-41.15 -30.01,46.14 " />
</g>
<g transform="matrix(6.4 0 0 6.4 311.78 623.03)"  >
<polygon style="stroke: rgb(41,243,195); stroke-width: 3; stroke-dasharray: none; stroke-linecap: butt; stroke-dashoffset: 0; stroke-linejoin: miter; stroke-miterlimit: 10; fill: rgb(41,243,195); fill-rule: nonzero; opacity: 1;" vector-effect="non-scaling-stroke"  points="-15.76,29.7 -17.32,29.7 16.06,-29.7 17.32,-28.03 -15.76,29.7 " />
</g>
<g transform="matrix(6.4 0 0 6.4 747.99 518.39)"  >
<polygon style="stroke: rgb(41,243,195); stroke-width: 3; stroke-dasharray: none; stroke-linecap: butt; stroke-dashoffset: 0; stroke-linejoin: miter; stroke-miterlimit: 10; fill: rgb(41,243,195); fill-rule: nonzero; opacity: 1;" vector-effect="non-scaling-stroke"  points="17.64,46.16 -1.52,-41.31 -17.83,-18.38 -19.47,-19.54 -0.52,-46.16 19.47,46.05 17.64,46.16 " />
</g>
<g transform="matrix(6.4 0 0 6.4 652.03 516.35)"  >
<polygon style="stroke: rgb(41,243,195); stroke-width: 3; stroke-dasharray: none; stroke-linecap: butt; stroke-dashoffset: 0; stroke-linejoin: miter; stroke-miterlimit: 10; fill: rgb(41,243,195); fill-rule: nonzero; opacity: 1;" vector-effect="non-scaling-stroke"  points="32.39,45.43 -18,-41.43 -32.28,-16.75 -33.52,-18.6 -18,-45.42 33.52,44.66 32.39,45.43 " />
</g>
</svg>