<svg xmlns="http://www.w3.org/2000/svg" viewBox="0 0 143.06 164.98"><defs><style>.cls-1{fill:#bfc0c0;stroke-width:2px;}.cls-1,.cls-3{stroke:#505d75;stroke-miterlimit:10;}.cls-2{fill:#b5bcbc;}.cls-3{fill:#505d75;stroke-width:3px;}</style></defs><title>svg2Asset 27</title><g id="Layer_2" data-name="Layer 2"><g id="Layer_5" data-name="Layer 5"><polygon class="cls-1" points="141.99 41.84 71.53 1.16 1.07 41.84 11.94 136.28 71.53 163.88 131.27 136.62 141.99 41.84"/></g><g id="Layer_4" data-name="Layer 4"><polygon class="cls-2" points="71.56 162.79 130.36 135.93 140.92 42.39 71.51 2.32 71.56 162.79"/></g><g id="Layer_6" data-name="Layer 6"><polygon class="cls-3" points="20.62 125.69 19.06 125.68 52.44 66.28 53.7 67.95 20.62 125.69"/></g><g id="Layer_7" data-name="Layer 7"><polygon class="cls-3" points="121.92 124.76 71.53 37.9 57.25 62.58 56.01 60.73 71.53 33.91 123.05 123.99 121.92 124.76"/></g><g id="Layer_8" data-name="Layer 8"><polygon class="cls-3" points="122.15 125.81 103 38.33 86.68 61.26 85.05 60.1 104 33.48 123.98 125.69 122.15 125.81"/></g><g id="Layer_9" data-name="Layer 9"><polygon class="cls-3" points="20.69 125.69 19.06 125.68 39 33.41 71.51 80.6 81.17 66.28 82.35 68.15 71.56 85.44 39.95 38.4 20.69 125.69"/></g></g></svg>