<svg xmlns="http://www.w3.org/2000/svg" viewBox="0 0 143.06 164.98"><defs><style>.cls-1{fill:#bfc0c0;stroke-width:2px;}.cls-1,.cls-4{stroke:#505d75;stroke-miterlimit:10;}.cls-2{fill:#b5bcbc;}.cls-3,.cls-4{fill:#505d75;}.cls-4{stroke-width:3px;}</style></defs><title>svg2Asset 20</title><g id="Layer_2" data-name="Layer 2"><g id="Layer_1-2" data-name="Layer 1"><polygon class="cls-1" points="141.99 41.84 71.53 1.16 1.07 41.84 11.94 136.28 71.53 163.88 131.27 136.62 141.99 41.84"/><polygon class="cls-2" points="71.56 162.79 130.36 135.93 140.92 42.39 71.51 2.32 71.56 162.79"/><path class="cls-3" d="M40.34,122.16a4.2,4.2,0,0,1-4.21,4.21H34.35a.69.69,0,0,1-.69-.69v-7a.7.7,0,0,1,.69-.7h1.78A4.22,4.22,0,0,1,40.34,122.16Zm-1.39,0a2.83,2.83,0,0,0-2.82-2.82H35.05V125h1.08A2.82,2.82,0,0,0,39,122.16Z"/><path class="cls-3" d="M44.55,126.43a3.06,3.06,0,0,1-2.28-1,3.36,3.36,0,0,1-.86-2.3,3.13,3.13,0,0,1,3.08-3.31,3.08,3.08,0,0,1,3,3.31.7.7,0,0,1-.71.7H42.91A1.72,1.72,0,0,0,44.55,125a1.42,1.42,0,0,0,1.38-.67.7.7,0,1,1,1.2.72A2.72,2.72,0,0,1,44.55,126.43Zm-1.65-4h3.15a1.59,1.59,0,0,0-1.56-1.21A1.64,1.64,0,0,0,42.9,122.39Z"/><path class="cls-3" d="M50.91,126.37a.69.69,0,0,1-.65-.43l-2.08-5.22a.69.69,0,0,1,.38-.91.71.71,0,0,1,.91.39l1.44,3.61,1.44-3.61a.71.71,0,0,1,.91-.39.7.7,0,0,1,.39.91l-2.09,5.22A.68.68,0,0,1,50.91,126.37Z"/><path class="cls-3" d="M57.43,126.43a3,3,0,0,1-2.28-1,3.36,3.36,0,0,1-.86-2.3,3.13,3.13,0,0,1,3.08-3.31,3.09,3.09,0,0,1,3.05,3.31.71.71,0,0,1-.71.7H55.79A1.72,1.72,0,0,0,57.43,125a1.43,1.43,0,0,0,1.38-.67.7.7,0,0,1,1-.24.71.71,0,0,1,.24,1A2.73,2.73,0,0,1,57.43,126.43Zm-1.66-4h3.16a1.59,1.59,0,0,0-1.56-1.21A1.66,1.66,0,0,0,55.77,122.39Z"/><path class="cls-3" d="M62.24,126.37a.69.69,0,0,1-.69-.69v-7a.7.7,0,0,1,.69-.7.71.71,0,0,1,.71.7v7A.7.7,0,0,1,62.24,126.37Z"/><path class="cls-3" d="M67.38,126.41a3.31,3.31,0,1,1,3.31-3.3A3.3,3.3,0,0,1,67.38,126.41Zm0-5.22a1.92,1.92,0,1,0,1.9,1.92A1.92,1.92,0,0,0,67.38,121.19Z"/><path class="cls-3" d="M78,123.06a3.39,3.39,0,0,1-.86,2.32,3.08,3.08,0,0,1-2.28,1,3.18,3.18,0,0,1-1.74-.52v2.83a.7.7,0,0,1-.71.69.69.69,0,0,1-.69-.69v-8.22a.7.7,0,0,1,.69-.7.71.71,0,0,1,.69.54,3.18,3.18,0,0,1,1.76-.54,3,3,0,0,1,2.28,1A3.41,3.41,0,0,1,78,123.06Zm-1.39,0A1.75,1.75,0,1,0,74.9,125,1.77,1.77,0,0,0,76.65,123.06Z"/><path class="cls-3" d="M88.13,122.63v3.05a.7.7,0,0,1-1.4,0v-3.05c0-.87-.44-1.47-1.13-1.47a1.33,1.33,0,0,0-1.28,1.47v3.05a.7.7,0,0,1-1.4,0v-3.05c0-.87-.45-1.47-1.13-1.47a1.33,1.33,0,0,0-1.28,1.47v3.05a.7.7,0,0,1-1.4,0v-5.22a.71.71,0,0,1,.7-.7.7.7,0,0,1,.61.38,2.66,2.66,0,0,1,1.37-.38,2.38,2.38,0,0,1,1.86.87,2.58,2.58,0,0,1,1.95-.87A2.63,2.63,0,0,1,88.13,122.63Z"/><path class="cls-3" d="M92.35,126.43a3,3,0,0,1-2.28-1,3.36,3.36,0,0,1-.86-2.3,3.13,3.13,0,0,1,3.08-3.31,3.09,3.09,0,0,1,3,3.31.71.71,0,0,1-.71.7H90.71A1.72,1.72,0,0,0,92.35,125a1.43,1.43,0,0,0,1.38-.67.7.7,0,0,1,1-.24.71.71,0,0,1,.24,1A2.73,2.73,0,0,1,92.35,126.43Zm-1.66-4h3.16a1.59,1.59,0,0,0-1.56-1.21A1.66,1.66,0,0,0,90.69,122.39Z"/><path class="cls-3" d="M101.89,122.63v3.05a.71.71,0,0,1-1.41,0v-3.05a1.33,1.33,0,0,0-1.28-1.47,1.4,1.4,0,0,0-1.4,1.47v3.05a.7.7,0,0,1-1.39,0v-5.22a.7.7,0,0,1,1.33-.29,2.76,2.76,0,0,1,1.46-.41A2.74,2.74,0,0,1,101.89,122.63Z"/><path class="cls-3" d="M106.72,125.76a1.77,1.77,0,0,1-3.1-1.15v-3.45a.7.7,0,0,1,0-1.4V119a.7.7,0,1,1,1.4,0v.76h.89a.7.7,0,0,1,0,1.4H105v3.45a.37.37,0,0,0,.36.37.35.35,0,0,0,.28-.13.7.7,0,0,1,1-.07A.68.68,0,0,1,106.72,125.76Z"/><path class="cls-3" d="M109.28,126.13a.75.75,0,1,1-.75-.7A.72.72,0,0,1,109.28,126.13Z"/><polygon class="cls-4" points="20.69 125.69 19.06 125.68 53.98 64.25 55.29 65.97 20.69 125.69"/><polygon class="cls-4" points="122.15 125.81 71.53 37.9 57.25 62.58 55.52 61.58 71.53 33.91 123.62 124.04 122.15 125.81"/><polygon class="cls-4" points="122.15 125.81 103 38.33 86.68 61.26 85.05 60.1 104 33.48 123.98 125.69 122.15 125.81"/><polygon class="cls-4" points="20.69 125.69 19.06 125.68 39 33.41 71.51 80.6 83.02 62.83 84.19 64.7 71.56 85.44 39.95 38.4 20.69 125.69"/></g></g></svg>