<?xml version="1.0" encoding="UTF-8"?>
<svg xmlns="http://www.w3.org/2000/svg" xmlns:xlink="http://www.w3.org/1999/xlink" width="40px" height="40px" viewBox="0 0 40 40" version="1.1">
<g id="surface1">
<path style="fill:none;stroke-width:3;stroke-linecap:butt;stroke-linejoin:miter;stroke:rgb(16.078431%,95.294118%,76.470588%);stroke-opacity:1;stroke-miterlimit:10;" d="M 70.466309 -40.687866 L 0 -81.359253 L -70.466309 -40.687866 L -59.589844 53.756104 L 0 81.359253 L 59.738159 54.102173 Z M 70.466309 -40.687866 " transform="matrix(0.237037,0,0,0.237037,20,20)"/>
<path style=" stroke:none;fill-rule:nonzero;fill:rgb(70.980392%,73.72549%,73.72549%);fill-opacity:0.329412;" d="M 19.890625 38.90625 L 33.832031 32.542969 L 36.332031 10.367188 L 19.882812 0.871094 Z M 19.890625 38.90625 "/>
<path style="fill-rule:nonzero;fill:rgb(16.078431%,95.294118%,76.470588%);fill-opacity:1;stroke-width:3;stroke-linecap:butt;stroke-linejoin:miter;stroke:rgb(16.078431%,95.294118%,76.470588%);stroke-opacity:1;stroke-miterlimit:10;" d="M -30.01416 46.135718 L -31.64563 46.135718 L -11.705444 -46.132959 L 20.808594 1.047827 L 30.465576 -13.272852 L 31.63562 -11.394189 L 20.858032 5.892798 L -10.749634 -41.156152 Z M -30.01416 46.135718 " transform="matrix(0.237037,0,0,0.237037,14.942593,19.177407)"/>
<path style="fill-rule:nonzero;fill:rgb(16.078431%,95.294118%,76.470588%);fill-opacity:1;stroke-width:3;stroke-linecap:butt;stroke-linejoin:miter;stroke:rgb(16.078431%,95.294118%,76.470588%);stroke-opacity:1;stroke-miterlimit:10;" d="M -15.756641 29.691968 L -17.322192 29.691968 L 16.065259 -29.700122 L 17.3177 -28.035693 Z M -15.756641 29.691968 " transform="matrix(0.237037,0,0,0.237037,11.547407,23.075185)"/>
<path style="fill-rule:nonzero;fill:rgb(16.078431%,95.294118%,76.470588%);fill-opacity:1;stroke-width:3;stroke-linecap:butt;stroke-linejoin:miter;stroke:rgb(16.078431%,95.294118%,76.470588%);stroke-opacity:1;stroke-miterlimit:10;" d="M 17.632178 46.157324 L -1.516992 -41.31582 L -17.831689 -18.376367 L -19.463159 -19.546411 L -0.528223 -46.160791 L 19.477881 46.041968 Z M 17.632178 46.157324 " transform="matrix(0.237037,0,0,0.237037,27.703333,19.19963)"/>
<path style="fill-rule:nonzero;fill:rgb(16.078431%,95.294118%,76.470588%);fill-opacity:1;stroke-width:3;stroke-linecap:butt;stroke-linejoin:miter;stroke:rgb(16.078431%,95.294118%,76.470588%);stroke-opacity:1;stroke-miterlimit:10;" d="M 32.395215 45.437866 L -17.999072 -41.425537 L -32.286792 -16.755737 L -33.522754 -18.60144 L -17.999072 -45.413574 L 33.51582 44.66333 Z M 32.395215 45.437866 " transform="matrix(0.237037,0,0,0.237037,24.149259,19.124074)"/>
</g>
</svg>
